# xmcd CD database file
#
# Track frame offsets:
#	150
#	35450
#	47367
#	77017
#	113380
#	123087
#	156917
#	168847
#	195247
#	206037
#	241020
#	246897
#
# Disc length: 3673 seconds
#
# Revision: 0
# Processed by: cddbd v1.5.1PL2 Copyright (c) Steve Scherf et al.
# Submitted via: CDex 1.51
#
DISCID=840e570c
DTITLE=Lee Konitz "Leewise" - Lee Konitz And The Jazzpar All Star Nonet
DYEAR=1993
DGENRE=Jazz
TTITLE0=Partout
TTITLE1=Alone Together
TTITLE2=Body And Soul
TTITLE3=Leewise
TTITLE4=JesperLee
TTITLE5=SubconsciousLee
TTITLE6=PeggyLee
TTITLE7=Skygger (Shadows)
TTITLE8=AllanLee
TTITLE9=Pazzenger
TTITLE10=JensLee
TTITLE11=Stardust
EXTD=YEAR: 1993
EXTT0=
EXTT1=
EXTT2=
EXTT3=
EXTT4=
EXTT5=
EXTT6=
EXTT7=
EXTT8=
EXTT9=
EXTT10=
EXTT11=
PLAYORDER=
